<?xml version="1.0" encoding="UTF-8" standalone="no"?>
<!-- Created with Inkscape (http://www.inkscape.org/) -->

<svg
   width="123.81156mm"
   height="109.26891mm"
   viewBox="0 0 123.81156 109.26891"
   version="1.1"
   id="svg1"
   xml:space="preserve"
   xmlns="http://www.w3.org/2000/svg"
   xmlns:svg="http://www.w3.org/2000/svg"><defs
     id="defs1" /><g
     id="layer1"
     transform="translate(-1141.4076,-448.07711)"><g
       id="g84"
       transform="translate(203.56019,-39.272771)"><path
         id="path58"
         style="color:#000000;fill:none;stroke:#f9cb30;stroke-linecap:round;stroke-linejoin:round;stroke-opacity:1;-inkscape-stroke:none;paint-order:markers stroke fill"
         d="m 1015.5716,564.484 c -1.6594,4.63276 -4.2244,9.00075 -7.1562,11.8776 -2.9573,2.90143 -3.002,7.6511 -0.1,10.60762 1.7121,1.73476 4.1459,2.54913 6.5504,2.1504" /><path
         id="path59"
         style="color:#000000;fill:none;stroke:#f9cb30;stroke-linecap:round;stroke-linejoin:round;stroke-opacity:1;-inkscape-stroke:none;paint-order:markers stroke fill"
         d="m 989.67671,537.68811 c 2.85753,-1.99837 6.3239,-3.08004 10.0762,-3.08004 6.61729,0 12.34469,3.36408 15.41199,9.18735" /><path
         id="path60"
         style="color:#000000;fill:none;stroke:#f9cb30;stroke-linecap:round;stroke-linejoin:round;stroke-opacity:1;-inkscape-stroke:none;paint-order:markers stroke fill"
         d="m 984.63878,589.1273 c 2.32543,0.37975 4.77625,-0.34826 6.55187,-2.15808 2.90169,-2.95709 2.8561,-7.70677 -0.10181,-10.60762 -2.93173,-2.87683 -5.49675,-7.24482 -7.15617,-11.87759" /><path
         id="path61"
         style="color:#000000;fill:none;stroke:#f9cb30;stroke-linecap:round;stroke-linejoin:round;stroke-opacity:1;-inkscape-stroke:none;paint-order:markers stroke fill"
         d="m 1027.984,574.08168 c 2.9562,-6.24665 4.5659,-13.05834 4.5659,-19.94046 0,-19.25787 -14.7468,-34.53329 -32.79699,-34.53329 v 0 c -18.05017,0 -32.79851,15.27542 -32.79851,34.53329 0,6.87392 1.5952,13.68015 4.54156,19.92323" /><path
         id="path62"
         style="color:#000000;fill:none;stroke:#f9cb30;stroke-width:1;stroke-linecap:round;stroke-linejoin:round;stroke-opacity:1;-inkscape-stroke:none;paint-order:markers stroke fill"
         d="m 1026.5131,528.92561 c -6.5876,-7.76643 -16.1529,-12.61042 -26.75991,-12.61042 h -10e-6 v 0 c -10.607,0 -20.17294,4.84399 -26.76102,12.61042" /><g
         id="g64"
         transform="translate(668.0698,444.91338)"
         style="stroke:#f9cb30;stroke-opacity:1"><path
           style="fill:none;stroke:#f9cb30;stroke-width:1;stroke-linecap:round;stroke-linejoin:round;stroke-dasharray:none;stroke-opacity:1;paint-order:markers stroke fill"
           d="m 304.92237,84.012229 -2.3151,-12.368661 7.61902,1.693032 4.47686,-12.525645 9.00717,4.855287 7.97305,-12.217748"
           id="path63" /><path
           style="fill:none;stroke:#f9cb30;stroke-width:1;stroke-linecap:round;stroke-linejoin:round;stroke-dasharray:none;stroke-opacity:1;paint-order:markers stroke fill"
           d="m 358.44325,84.01223 2.3151,-12.368661 -7.61902,1.693032 -4.47686,-12.525645 -9.00717,4.855287 -7.97305,-12.217748"
           id="path64" /></g><path
         id="path65"
         style="fill:none;stroke:#f9cb30;stroke-linecap:round;stroke-linejoin:round;stroke-opacity:1;paint-order:markers stroke fill"
         d="m 999.75261,496.11596 c -2.55048,-2e-5 -2.96039,-3.76496 0,-8.26611 2.96039,4.50105 2.55059,8.26611 0,8.26611 z" /><g
         id="g67"
         transform="translate(668.0698,444.91338)"
         style="stroke:#f9cb30;stroke-opacity:1"><path
           id="path66"
           style="fill:none;stroke:#f9cb30;stroke-width:1;stroke-linecap:round;stroke-linejoin:round;stroke-opacity:1;paint-order:markers stroke fill"
           d="m 314.32636,58.855478 c -1.89232,0.500716 -2.95738,-2.294419 -1.67063,-6.313546 3.10612,2.85665 3.563,5.81281 1.67063,6.313546 z" /><path
           id="path67"
           style="fill:none;stroke:#f9cb30;stroke-width:1;stroke-linecap:round;stroke-linejoin:round;stroke-opacity:1;paint-order:markers stroke fill"
           d="m 301.98135,69.920696 c -1.427,0.570039 -2.5204,-1.580012 -1.89706,-4.921688 2.68932,2.018296 3.32411,4.351632 1.89706,4.921688 z" /></g><g
         id="g69"
         transform="matrix(-1,0,0,1,1331.4355,444.91338)"
         style="stroke:#f9cb30;stroke-opacity:1"><path
           id="path68"
           style="fill:none;stroke:#f9cb30;stroke-width:1;stroke-linecap:round;stroke-linejoin:round;stroke-opacity:1;paint-order:markers stroke fill"
           d="m 314.32636,58.855478 c -1.89232,0.500716 -2.95738,-2.294419 -1.67063,-6.313546 3.10612,2.85665 3.563,5.81281 1.67063,6.313546 z" /><path
           id="path69"
           style="fill:none;stroke:#f9cb30;stroke-width:1;stroke-linecap:round;stroke-linejoin:round;stroke-opacity:1;paint-order:markers stroke fill"
           d="m 301.98135,69.920696 c -1.427,0.570039 -2.5204,-1.580012 -1.89706,-4.921688 2.68932,2.018296 3.32411,4.351632 1.89706,4.921688 z" /></g><path
         id="path70"
         style="fill:none;fill-opacity:1;stroke:#f9cb30;stroke-width:1;stroke-linecap:round;stroke-linejoin:round;stroke-dasharray:none;stroke-opacity:1;paint-order:fill markers stroke"
         d="m 1019.7965,579.67662 c 0,0 11.222,-7.93854 12.3694,-7.99478 13.7118,-0.67204 7.9277,-14.21303 1.954,-16.90687" /><circle
         style="fill:none;fill-opacity:1;stroke:#f9cb30;stroke-width:1;stroke-linecap:round;stroke-linejoin:round;stroke-dasharray:none;stroke-opacity:1;paint-order:fill markers stroke"
         id="circle70"
         cx="1023.3135"
         cy="587.52155"
         r="8.5972223" /><circle
         style="fill:none;stroke:#f9cb30;stroke-width:1;stroke-linecap:round;stroke-linejoin:round;stroke-dasharray:none;stroke-opacity:1;paint-order:markers stroke fill"
         id="circle71"
         cx="1023.3135"
         cy="587.52155"
         r="3.1175177" /><path
         style="fill:none;fill-opacity:1;stroke:#f9cb30;stroke-width:1;stroke-linecap:round;stroke-linejoin:round;stroke-dasharray:none;stroke-opacity:1;paint-order:fill markers stroke"
         d="m 1030.1549,582.31498 c 3.3435,3.25494 20.9483,0.51554 23.1305,-15.58898 1.5389,-11.35679 -13.4726,-18.41569 -13.0218,-26.30577 0.4218,-7.38457 9.3563,-13.50823 20.8955,-15.28267 l -12.7065,-5.79152 c -13.1049,2.3639 -17.8664,9.03901 -19.3497,14.45362"
         id="path71" /><path
         style="fill:#cccccc;fill-opacity:1;stroke:#f9cb30;stroke-width:1;stroke-linecap:round;stroke-linejoin:round;stroke-dasharray:none;stroke-opacity:1;paint-order:fill markers stroke"
         d="m 1030.2606,592.58618 6.9822,-9.07115"
         id="path72" /><path
         style="fill:#cccccc;fill-opacity:1;stroke:#f9cb30;stroke-width:1;stroke-linecap:round;stroke-linejoin:round;stroke-dasharray:2, 2;stroke-dashoffset:0;stroke-opacity:1;paint-order:fill markers stroke"
         d="m 1038.3152,536.18338 -6.4706,-2.84528"
         id="path73" /><path
         style="fill:#cccccc;fill-opacity:1;stroke:#f9cb30;stroke-width:1;stroke-linecap:round;stroke-linejoin:round;stroke-dasharray:2, 2;stroke-dashoffset:0;stroke-opacity:1;paint-order:fill markers stroke"
         d="m 1038.2736,554.77252 5.5358,-3.23948"
         id="path74" /><path
         style="fill:#cccccc;fill-opacity:1;stroke:#f9cb30;stroke-width:1;stroke-linecap:round;stroke-linejoin:round;stroke-dasharray:2, 2;stroke-dashoffset:0;stroke-opacity:1;paint-order:fill markers stroke"
         d="m 1043.4817,567.30722 6.9272,0.58928"
         id="path75" /><path
         style="fill:#cccccc;fill-opacity:1;stroke:#f9cb30;stroke-width:1;stroke-linecap:round;stroke-linejoin:round;stroke-dasharray:2, 2;stroke-dashoffset:0;stroke-opacity:1;paint-order:fill markers stroke"
         d="m 1036.4429,573.96043 -3.2878,6.30166"
         id="path76" /><path
         id="path77"
         style="fill:none;fill-opacity:1;stroke:#f9cb30;stroke-width:1;stroke-linecap:round;stroke-linejoin:round;stroke-dasharray:none;stroke-opacity:1;paint-order:fill markers stroke"
         d="m 979.70985,579.67662 c 0,0 -11.22197,-7.93854 -12.36936,-7.99478 -13.71185,-0.67204 -7.92769,-14.21303 -1.954,-16.90687" /><circle
         style="fill:none;fill-opacity:1;stroke:#f9cb30;stroke-width:1;stroke-linecap:round;stroke-linejoin:round;stroke-dasharray:none;stroke-opacity:1;paint-order:fill markers stroke"
         id="circle77"
         cx="-976.19281"
         cy="587.52155"
         r="8.5972223"
         transform="scale(-1,1)" /><circle
         style="fill:none;stroke:#f9cb30;stroke-width:1;stroke-linecap:round;stroke-linejoin:round;stroke-dasharray:none;stroke-opacity:1;paint-order:markers stroke fill"
         id="circle78"
         cx="-976.19281"
         cy="587.52155"
         r="3.1175177"
         transform="scale(-1,1)" /><path
         style="fill:none;fill-opacity:1;stroke:#f9cb30;stroke-width:1;stroke-linecap:round;stroke-linejoin:round;stroke-dasharray:none;stroke-opacity:1;paint-order:fill markers stroke"
         d="m 969.35151,582.31498 c -3.34353,3.25494 -20.94838,0.51554 -23.13059,-15.58898 -1.53887,-11.35679 13.4726,-18.41569 13.02186,-26.30577 -0.42186,-7.38457 -9.35632,-13.50823 -20.89556,-15.28267 l 12.70652,-5.79152 c 13.10492,2.3639 17.86638,9.03901 19.34973,14.45362"
         id="path78" /><path
         style="fill:#cccccc;fill-opacity:1;stroke:#f9cb30;stroke-width:1;stroke-linecap:round;stroke-linejoin:round;stroke-dasharray:none;stroke-opacity:1;paint-order:fill markers stroke"
         d="m 969.24579,592.58618 -6.98227,-9.07115"
         id="path79" /><path
         style="fill:#cccccc;fill-opacity:1;stroke:#f9cb30;stroke-width:1;stroke-linecap:round;stroke-linejoin:round;stroke-dasharray:2, 2;stroke-dashoffset:0;stroke-opacity:1;paint-order:fill markers stroke"
         d="m 961.19116,536.18338 6.47056,-2.84528"
         id="path80" /><path
         style="fill:#cccccc;fill-opacity:1;stroke:#f9cb30;stroke-width:1;stroke-linecap:round;stroke-linejoin:round;stroke-dasharray:2, 2;stroke-dashoffset:0;stroke-opacity:1;paint-order:fill markers stroke"
         d="m 961.2328,554.77252 -5.53588,-3.23948"
         id="path81" /><path
         style="fill:#cccccc;fill-opacity:1;stroke:#f9cb30;stroke-width:1;stroke-linecap:round;stroke-linejoin:round;stroke-dasharray:2, 2;stroke-dashoffset:0;stroke-opacity:1;paint-order:fill markers stroke"
         d="m 956.02463,567.30722 -6.9272,0.58928"
         id="path82" /><path
         style="fill:#cccccc;fill-opacity:1;stroke:#f9cb30;stroke-width:1;stroke-linecap:round;stroke-linejoin:round;stroke-dasharray:2, 2;stroke-dashoffset:0;stroke-opacity:1;paint-order:fill markers stroke"
         d="m 963.06342,573.96043 3.28782,6.30166"
         id="path83" /><text
         xml:space="preserve"
         style="font-style:italic;font-variant:normal;font-weight:normal;font-stretch:normal;font-size:33.7929px;line-height:1;font-family:'Playfair Display';-inkscape-font-specification:'Playfair Display, Italic';font-variant-ligatures:normal;font-variant-caps:normal;font-variant-numeric:normal;font-variant-east-asian:normal;text-align:center;text-anchor:middle;fill:#f9cb30;fill-opacity:1;stroke-width:12.4528;stroke-linejoin:round;paint-order:markers stroke fill"
         x="1000.8189"
         y="563.03204"
         id="text83"><tspan
           id="tspan83"
           style="font-style:italic;font-variant:normal;font-weight:normal;font-stretch:normal;font-size:33.7929px;font-family:'Playfair Display';-inkscape-font-specification:'Playfair Display, Italic';font-variant-ligatures:normal;font-variant-caps:normal;font-variant-numeric:normal;font-variant-east-asian:normal;fill:#f9cb30;fill-opacity:1;stroke-width:12.4528"
           x="1000.8189"
           y="563.03204">Piss</tspan></text></g></g></svg>
