<?xml version="1.0" encoding="UTF-8" standalone="no"?>
<!-- Created with Inkscape (http://www.inkscape.org/) -->

<svg
   width="49.061089mm"
   height="84.719505mm"
   viewBox="0 0 49.061089 84.719505"
   version="1.1"
   id="svg1"
   xml:space="preserve"
   xmlns="http://www.w3.org/2000/svg"
   xmlns:svg="http://www.w3.org/2000/svg"><defs
     id="defs1" /><g
     id="layer1"
     transform="translate(-745.46926,121.26162)"><g
       id="g58"><g
         id="g57"
         style="fill:#f8cb30;fill-opacity:1"><path
           style="color:#000000;fill:#f8cb30;fill-opacity:1;stroke-width:0.271188;stroke-linecap:round;stroke-linejoin:round;-inkscape-stroke:none;paint-order:markers stroke fill"
           d="m 785.89733,-88.436909 c 2.04932,-3.194003 -2.10914,-6.607433 -9.46289,-7.620613 -4.64795,-0.6404 -9.92885,-0.39652 -14.12122,0.6796 a 2.9878226,1.3845484 0 0 0 -1.16604,1.88189 2.9878226,1.3845484 0 0 0 4.0618,0.54044 c 2.50381,-0.64269 6.62276,-0.84719 9.52244,-0.44768 4.58773,0.63209 6.56127,2.42661 5.43807,4.177182 -1.1232,1.75058 -4.89191,2.75394 -9.47964,2.121849 -2.89966,-0.399512 -6.10842,-1.61362 -7.44777,-2.785821 a 2.9878226,1.3845484 0 0 0 -4.03919,-0.5757 2.9878226,1.3845484 0 0 0 -1.24213,1.87141 c 2.2426,1.962714 6.37815,3.503984 11.02607,4.14437 7.35376,1.013194 14.86117,-0.79292 16.9105,-3.986927 z"
           id="path44" /><path
           id="path45"
           style="color:#000000;fill:#f8cb30;fill-opacity:1;stroke-width:0.271188;stroke-linecap:round;stroke-linejoin:round;-inkscape-stroke:none;paint-order:markers stroke fill"
           d="m 752.61698,-120.37626 c -0.70101,-0.0297 -1.38661,0.20631 -2.02591,0.73587 -2.92251,2.4208 -3.80682,10.09137 -1.9111,17.26844 1.19819,4.536248 3.43625,8.670188 5.65593,10.658758 0.76417,0.68451 2.11242,-0.003 2.53803,-0.36706 0.4256,-0.36434 2.45817,-2.19681 2.69483,-2.40811 0.23666,-0.2113 0.57355,-1.10373 0.76667,-2.58133 0.56084,-4.291798 0.16388,-9.563488 -1.03432,-14.099768 -1.48104,-5.60709 -4.18054,-9.10087 -6.68413,-9.2068 z" /><path
           style="fill:#f8cb30;fill-opacity:1;stroke:none;stroke-width:15;stroke-linecap:round;stroke-linejoin:miter;stroke-dasharray:none"
           d="m 666.01883,-93.005475 c 6.24199,3.708547 18.43053,6.909155 31.09711,1.41761 0.78542,-0.340516 1.24615,0.03087 0.94945,0.833544 -3.52419,9.533977 -14.20589,5.962398 -12.54704,10.988822 0.26781,0.811482 -0.0225,1.553981 -0.87105,1.665913 -4.13472,0.545429 -9.75557,0.06371 -13.4702,-1.279389 -0.80461,-0.290922 -1.80188,-1.190477 -2.24373,-1.923744 -2.27073,-3.768314 -3.65762,-7.1661 -4.09389,-10.997762 -0.0968,-0.850472 0.4435,-1.142183 1.17935,-0.704994 z"
           id="path46"
           transform="matrix(0.76599393,0,0,0.76599393,249.29349,-14.159379)" /></g><g
         id="g56"><path
           id="path47"
           style="fill:none;stroke:#f8cb30;stroke-width:3.82997;stroke-linecap:round;stroke-linejoin:round;stroke-dasharray:none;stroke-opacity:1;paint-order:markers stroke fill"
           d="m 761.94029,-117.85651 c 2.49636,-0.96873 5.20379,-1.49013 8.03235,-1.49013 12.50518,0 22.6427,10.19112 22.6427,24.172748 0,8.837038 -4.04977,18.63927 -10.18744,24.65631" /><path
           id="path48"
           style="fill:none;stroke:#f8cb30;stroke-width:3.82997;stroke-linecap:round;stroke-linejoin:round;stroke-dasharray:none;stroke-opacity:1;paint-order:markers stroke fill"
           d="m 757.51744,-70.517528 c -5.72536,-5.612789 -9.63392,-14.519292 -10.13326,-22.863634" /></g><path
         id="path53"
         style="fill:#fbcd32;fill-opacity:1;stroke:#fbcd32;stroke-width:2;stroke-linecap:round;stroke-dasharray:none;stroke-opacity:1"
         d="m 760.18099,-64.56014 c -0.80615,0.05146 -1.55616,1.195407 -1.56732,2.158727 0.0111,0.317428 0.0998,0.620255 0.28224,0.873288 0.0815,0.09671 0.17622,0.185289 0.29839,0.253942 9.27997,5.214879 9.246,23.732247 10.80566,23.73206 1.55871,-1.87e-4 1.52562,-18.517404 10.8052,-23.73206 0.12217,-0.06866 0.21683,-0.157228 0.29839,-0.253942 0.18245,-0.253033 0.27112,-0.55586 0.28223,-0.873288 -0.0112,-0.96332 -0.76115,-2.107267 -1.56732,-2.158727 -0.15103,0.0024 -0.30362,0.0427 -0.46261,0.115061 -4.47791,2.037841 -6.91175,3.051482 -9.35589,3.041903 -2.44416,0.0096 -4.87842,-1.004052 -9.35635,-3.041903 -0.159,-0.07235 -0.31159,-0.112591 -0.46262,-0.115061 z" /></g></g></svg>
