<?xml version="1.0" encoding="UTF-8" standalone="no"?>
<!-- Created with Inkscape (http://www.inkscape.org/) -->

<svg
   width="49.061089mm"
   height="84.719505mm"
   viewBox="0 0 49.061089 84.719505"
   version="1.1"
   id="svg1"
   xml:space="preserve"
   sodipodi:docname="toilet_point.svg"
   inkscape:version="1.3.2 (091e20ef0f, 2023-11-25, custom)"
   xmlns:inkscape="http://www.inkscape.org/namespaces/inkscape"
   xmlns:sodipodi="http://sodipodi.sourceforge.net/DTD/sodipodi-0.dtd"
   xmlns="http://www.w3.org/2000/svg"
   xmlns:svg="http://www.w3.org/2000/svg"><sodipodi:namedview
     id="namedview1"
     pagecolor="#ffffff"
     bordercolor="#000000"
     borderopacity="0.25"
     inkscape:showpageshadow="2"
     inkscape:pageopacity="0.0"
     inkscape:pagecheckerboard="0"
     inkscape:deskcolor="#d1d1d1"
     inkscape:document-units="mm"
     inkscape:zoom="1.7534144"
     inkscape:cx="100.37559"
     inkscape:cy="157.40717"
     inkscape:window-width="2976"
     inkscape:window-height="1927"
     inkscape:window-x="12"
     inkscape:window-y="12"
     inkscape:window-maximized="1"
     inkscape:current-layer="svg1" /><defs
     id="defs1" /><g
     id="g9"
     inkscape:export-filename="toiletSign.png"
     inkscape:export-xdpi="96"
     inkscape:export-ydpi="96"><path
       id="path1"
       style="color:#000000;fill:#f8cb30;fill-opacity:1;stroke-width:2.7;stroke-linecap:round;stroke-linejoin:round;paint-order:markers stroke fill;stroke:#000000;stroke-dasharray:none"
       d="M 24.503931 0 C 21.440046 0 18.492985 0.56519411 15.777332 1.6190226 A 1.9149849 1.9149849 0 0 0 14.685409 4.0974243 A 1.9149849 1.9149849 0 0 0 17.16381 5.1893473 C 19.440867 4.3057198 21.910707 3.8302572 24.503931 3.8302572 C 35.968674 3.8302572 45.230314 13.031863 45.230314 26.087813 C 45.230314 34.339778 41.312884 43.792844 35.616947 49.376831 A 1.9149849 1.9149849 0 0 0 35.591626 52.084159 A 1.9149849 1.9149849 0 0 0 38.298954 52.111548 C 44.878334 45.661483 49.060571 35.509889 49.060571 26.087813 C 49.060571 11.180562 38.049497 5.0132687e-15 24.503931 0 z M 7.1478841 0.88521729 C 6.4468748 0.85551731 5.7609506 1.0915302 5.1216512 1.6210897 C 2.1991441 4.0418873 1.3149386 11.71274 3.2106567 18.889803 C 4.4088455 23.426047 6.6469645 27.560016 8.8666423 29.548584 C 9.6308115 30.233093 10.978862 29.545224 11.404472 29.181165 C 11.830071 28.816825 13.862738 26.984343 14.099398 26.773043 C 14.336058 26.561743 14.673156 25.669404 14.866276 24.191805 C 15.427115 19.900011 15.029913 14.628683 13.831714 10.092407 C 12.350675 4.4853228 9.6514716 0.99114718 7.1478841 0.88521729 z M 25.560197 24.85378 C 22.509838 24.863463 19.464162 25.211117 16.843933 25.883691 A 2.9878226 1.3845484 0 0 0 15.678113 27.765747 A 2.9878226 1.3845484 0 0 0 19.73988 28.306283 C 22.243688 27.663593 26.362619 27.458738 29.262297 27.858248 C 33.850022 28.490337 35.823406 30.2852 34.700208 32.035771 C 33.577009 33.786349 29.808408 34.789695 25.220683 34.157605 C 22.321026 33.758093 19.112424 32.543928 17.773075 31.371729 A 2.9878226 1.3845484 0 0 0 13.733529 30.796053 A 2.9878226 1.3845484 0 0 0 12.491744 32.667257 C 14.734342 34.629969 18.869512 36.171321 23.517428 36.811707 C 30.87118 37.8249 38.378695 36.018874 40.428023 32.82487 C 42.477341 29.63087 38.318778 26.217325 30.965035 25.204146 C 29.222055 24.963997 27.390412 24.847971 25.560197 24.85378 z M 1.8009237 25.968958 A 1.9149849 1.9149849 0 0 0 0.0041341146 27.994157 C 0.5342132 36.852171 4.5694402 46.094821 10.70684 52.111548 A 1.9149849 1.9149849 0 0 0 13.416235 52.084159 A 1.9149849 1.9149849 0 0 0 13.388847 49.376831 C 8.0755456 44.167999 4.294722 35.596383 3.826123 27.765747 A 1.9149849 1.9149849 0 0 0 1.8009237 25.968958 z M 13.601237 35.712032 C 13.25052 35.664135 13.031444 35.912287 13.087056 36.400879 C 13.421236 39.335906 14.483936 41.938151 16.223299 44.824654 C 16.561753 45.386332 17.325731 46.075621 17.942057 46.298466 C 20.787438 47.327269 25.092607 47.696046 28.259774 47.278251 C 28.909762 47.192512 29.132057 46.623949 28.926917 46.00236 C 27.656249 42.152154 35.838711 44.887748 38.538216 37.584786 C 38.765487 36.969947 38.412237 36.685749 37.810612 36.946582 C 28.108098 41.153068 18.771682 38.701581 13.990361 35.86086 C 13.849446 35.777139 13.718143 35.727998 13.601237 35.712032 z M 14.687476 55.700993 L 14.648201 55.70306 C 13.794671 55.75754 13.211724 56.293559 12.810588 56.865263 C 12.40945 57.436966 12.153011 58.111027 12.144478 58.847571 L 12.144478 58.871342 L 12.144478 58.894596 C 12.161308 59.375772 12.301375 59.882956 12.615251 60.318282 L 12.636955 60.349805 L 12.662276 60.377193 C 12.795914 60.535771 12.984352 60.718857 13.234334 60.859334 C 17.433167 63.218868 19.731463 68.867044 21.054529 74.056462 C 21.716062 76.65117 22.142378 79.100902 22.50767 80.939246 C 22.690317 81.858418 22.852643 82.618771 23.046655 83.22076 C 23.143665 83.521755 23.240641 83.781626 23.412008 84.049133 C 23.583375 84.316642 23.939146 84.718931 24.531319 84.71886 C 25.123731 84.718789 25.477327 84.316616 25.648564 84.049133 C 25.819801 83.781651 25.91696 83.521741 26.013916 83.22076 C 26.207828 82.618799 26.370287 81.858419 26.552901 80.939246 C 26.918129 79.1009 27.346035 76.651156 28.007593 74.056462 C 29.330708 68.867072 31.627602 63.218755 35.826237 60.859334 C 36.076273 60.718813 36.264875 60.536953 36.398295 60.378743 L 36.423617 60.349805 L 36.445321 60.318282 C 36.759249 59.882907 36.899254 59.375689 36.916093 58.894596 L 36.916093 58.871342 L 36.916093 58.847571 C 36.907528 58.111025 36.65111 57.436966 36.249984 56.865263 C 35.848857 56.293559 35.265383 55.757543 34.411853 55.70306 L 34.373096 55.700993 L 34.333822 55.700993 C 34.01567 55.706093 33.724036 55.79185 33.472892 55.906148 C 29.00554 57.939184 26.699995 58.867941 24.534937 58.859456 L 24.531319 58.859456 L 24.527185 58.859456 C 22.362113 58.867956 20.055031 57.939185 15.587679 55.906148 C 15.336382 55.7918 15.045876 55.706187 14.7283 55.700993 L 14.687476 55.700993 z " /><g
       id="layer1"
       transform="translate(-745.46926,121.26162)"><g
         id="g58"><g
           id="g57"
           style="fill:#f8cb30;fill-opacity:1"><path
             style="color:#000000;fill:#f8cb30;fill-opacity:1;stroke-width:0.271188;stroke-linecap:round;stroke-linejoin:round;-inkscape-stroke:none;paint-order:markers stroke fill"
             d="m 785.89733,-88.436909 c 2.04932,-3.194003 -2.10914,-6.607433 -9.46289,-7.620613 -4.64795,-0.6404 -9.92885,-0.39652 -14.12122,0.6796 a 2.9878226,1.3845484 0 0 0 -1.16604,1.88189 2.9878226,1.3845484 0 0 0 4.0618,0.54044 c 2.50381,-0.64269 6.62276,-0.84719 9.52244,-0.44768 4.58773,0.63209 6.56127,2.42661 5.43807,4.177182 -1.1232,1.75058 -4.89191,2.75394 -9.47964,2.121849 -2.89966,-0.399512 -6.10842,-1.61362 -7.44777,-2.785821 a 2.9878226,1.3845484 0 0 0 -4.03919,-0.5757 2.9878226,1.3845484 0 0 0 -1.24213,1.87141 c 2.2426,1.962714 6.37815,3.503984 11.02607,4.14437 7.35376,1.013194 14.86117,-0.79292 16.9105,-3.986927 z"
             id="path44" /><path
             id="path45"
             style="color:#000000;fill:#f8cb30;fill-opacity:1;stroke-width:0.271188;stroke-linecap:round;stroke-linejoin:round;-inkscape-stroke:none;paint-order:markers stroke fill"
             d="m 752.61698,-120.37626 c -0.70101,-0.0297 -1.38661,0.20631 -2.02591,0.73587 -2.92251,2.4208 -3.80682,10.09137 -1.9111,17.26844 1.19819,4.536248 3.43625,8.670188 5.65593,10.658758 0.76417,0.68451 2.11242,-0.003 2.53803,-0.36706 0.4256,-0.36434 2.45817,-2.19681 2.69483,-2.40811 0.23666,-0.2113 0.57355,-1.10373 0.76667,-2.58133 0.56084,-4.291798 0.16388,-9.563488 -1.03432,-14.099768 -1.48104,-5.60709 -4.18054,-9.10087 -6.68413,-9.2068 z" /><path
             style="fill:#f8cb30;fill-opacity:1;stroke:none;stroke-width:15;stroke-linecap:round;stroke-linejoin:miter;stroke-dasharray:none"
             d="m 666.01883,-93.005475 c 6.24199,3.708547 18.43053,6.909155 31.09711,1.41761 0.78542,-0.340516 1.24615,0.03087 0.94945,0.833544 -3.52419,9.533977 -14.20589,5.962398 -12.54704,10.988822 0.26781,0.811482 -0.0225,1.553981 -0.87105,1.665913 -4.13472,0.545429 -9.75557,0.06371 -13.4702,-1.279389 -0.80461,-0.290922 -1.80188,-1.190477 -2.24373,-1.923744 -2.27073,-3.768314 -3.65762,-7.1661 -4.09389,-10.997762 -0.0968,-0.850472 0.4435,-1.142183 1.17935,-0.704994 z"
             id="path46"
             transform="matrix(0.76599393,0,0,0.76599393,249.29349,-14.159379)" /></g><g
           id="g56"><path
             id="path47"
             style="fill:none;stroke:#f8cb30;stroke-width:3.82997;stroke-linecap:round;stroke-linejoin:round;stroke-dasharray:none;stroke-opacity:1;paint-order:markers stroke fill"
             d="m 761.94029,-117.85651 c 2.49636,-0.96873 5.20379,-1.49013 8.03235,-1.49013 12.50518,0 22.6427,10.19112 22.6427,24.172748 0,8.837038 -4.04977,18.63927 -10.18744,24.65631" /><path
             id="path48"
             style="fill:none;stroke:#f8cb30;stroke-width:3.82997;stroke-linecap:round;stroke-linejoin:round;stroke-dasharray:none;stroke-opacity:1;paint-order:markers stroke fill"
             d="m 757.51744,-70.517528 c -5.72536,-5.612789 -9.63392,-14.519292 -10.13326,-22.863634" /></g><path
           id="path53"
           style="fill:#fbcd32;fill-opacity:1;stroke:#fbcd32;stroke-width:2;stroke-linecap:round;stroke-dasharray:none;stroke-opacity:1"
           d="m 760.18099,-64.56014 c -0.80615,0.05146 -1.55616,1.195407 -1.56732,2.158727 0.0111,0.317428 0.0998,0.620255 0.28224,0.873288 0.0815,0.09671 0.17622,0.185289 0.29839,0.253942 9.27997,5.214879 9.246,23.732247 10.80566,23.73206 1.55871,-1.87e-4 1.52562,-18.517404 10.8052,-23.73206 0.12217,-0.06866 0.21683,-0.157228 0.29839,-0.253942 0.18245,-0.253033 0.27112,-0.55586 0.28223,-0.873288 -0.0112,-0.96332 -0.76115,-2.107267 -1.56732,-2.158727 -0.15103,0.0024 -0.30362,0.0427 -0.46261,0.115061 -4.47791,2.037841 -6.91175,3.051482 -9.35589,3.041903 -2.44416,0.0096 -4.87842,-1.004052 -9.35635,-3.041903 -0.159,-0.07235 -0.31159,-0.112591 -0.46262,-0.115061 z" /></g></g></g></svg>
